<svg width="1920" height="230" viewBox="0 0 1920 230" fill="none" xmlns="http://www.w3.org/2000/svg">
<rect width="1920" height="230" fill="url(#paint0_linear)" fill-opacity="0.94"/>
<path opacity="0.04" d="M271.434 42.2565L338.276 24.5156L340.457 77.2773L273.613 95.0134L271.434 42.2565Z" fill="white"/>
<path opacity="0.04" d="M320.4 58.1325L368.318 44.7605L367.455 84.3288L319.535 97.7003L320.4 58.1325Z" fill="white"/>
<path opacity="0.04" d="M58.584 101.694L162.811 74.0307L166.21 156.294L61.9834 183.957L58.584 101.694Z" fill="white"/>
<path opacity="0.04" d="M134.937 126.449L209.655 105.599L208.307 167.297L133.588 188.147L134.937 126.449Z" fill="white"/>
<path opacity="0.04" d="M1591.54 35.7742L1645.21 48.4208L1644.46 89.5693L1590.78 76.9227L1591.54 35.7742Z" fill="white"/>
<path opacity="0.04" d="M1621.73 62.9249L1660.37 72.6486L1661.65 103.316L1623.01 93.5926L1621.73 62.9249Z" fill="white"/>
<path opacity="0.04" d="M1776.74 102.748L1860.18 122.408L1859 186.381L1775.57 166.717L1776.74 102.748Z" fill="white"/>
<path opacity="0.04" d="M1823.68 144.957L1883.74 160.072L1885.73 207.75L1825.67 192.631L1823.68 144.957Z" fill="white"/>
<defs>
<linearGradient id="paint0_linear" x1="-1.04956e-06" y1="115" x2="2407.5" y2="115" gradientUnits="userSpaceOnUse">
<stop stop-color="#8000ff"/>
<stop offset="1" stop-color="#0000FF" stop-opacity="0"/>
</linearGradient>
</defs>
</svg>
